<?xml version="1.0" encoding="UTF-8"?>
<svg id="Layer_1" xmlns="http://www.w3.org/2000/svg" version="1.1" viewBox="0 0 1246.09 1245.7">
  <!-- Generator: Adobe Illustrator 30.4.0, SVG Export Plug-In . SVG Version: 2.1.4 Build 226)  -->
  <defs>
    <style>
      .st0, .st1, .st2 {
        fill: none;
      }

      .st1 {
        stroke: #000;
        stroke-linecap: round;
        stroke-linejoin: round;
        stroke-width: 4px;
      }

      .st2 {
        stroke: #75c5f0;
        stroke-miterlimit: 10;
        stroke-width: 24px;
      }
    </style>
  </defs>
  <g>
    <path d="M759.28,881.64c-2.21,25.06-24.32,40.3-49.01,35.85-1.99,17.02-14.08,29.81-30.27,33.91-10.5,2.65-20.83.76-30.69-3.37-5.36,6.13-10.08,11.83-16.52,16.2-15.82,10.73-36.95,10.88-52.59-.24-8.46-6.01-15.22-13.18-22.56-20.57-13.56,4.87-27.9,3.24-39.82-5.08-10.31-7.19-16.45-18.18-16.78-31.29-22.47-.79-39.32-17.33-39.34-39.63-13.63-.56-25.63-7.97-32.25-18.6-7.64-12.25-8.08-26.7-1.7-39.36l-10.78-14.31c-1.75-2.33-3.31-5.51-6.15-7.01l-130.81-68.87-37.76-19.59-149.73-75.94-25.93-12.3c-9.17-4.35-15.53-14.97-9.12-24.86l69.12-106.55,49.98-77.95,20.38-33.59c6.69-11.03,17.57-16.6,30.58-11.57l257.85,99.79,78.78,32.24c23.5,9.62,43.19,25.02,55.96,47.14l1.62.43c12.46-20.93,30.08-36.89,52.63-45.86l218.8-86.99,82.3-31.66,42.37-15.83c7.85-2.93,18.81-.23,23.75,7.56l68.55,108.27,73.62,113.18c5.96,9.16,2.99,20.68-6.34,25.43l-55.81,28.42-66.74,34.39-196.1,101.5-28.6,14.71c-3.05,1.57-6.87,4.3-8.79,6.97l-16.93,23.46c8.74,18.15,4.81,39.52-10.43,52.35-9.57,8.06-21.64,10.93-34.74,9.24ZM704.03,888.46c6.79,6.24,15.56,7.63,23.15,2.95,6.97-4.3,10.92-16.25,4.07-22.5l-70.55-64.45c-5.55-5.07-5.22-13.68.07-18.51s12.86-3.95,18.42,1.11l69.04,62.75c4.9,4.45,10.13,7.77,16.88,8.07,8.53.38,16.3-5.71,18.29-13.86,2.12-8.71-1.87-15.56-8.29-21.17l-120.58-105.25-31.6-.2-27.94,28.06c-21.26,21.35-60.46,16.72-81.3-8.15-8.86-10.4-11.62-27.25-1.6-37.88l42.8-45.4-68.31-31.38-28.41-11.98-210.77-85.76-48.13-18.03c-7.25-2.72-10.94-10.17-8.72-17.45,1.88-6.15,9.26-11.79,16.76-9.36,32.25,10.44,63.65,21.69,95.22,34.7l189.71,78.2,83.59,39.09c8.93-7.41,18.82-13.58,31.01-16.36l-.2-28.73c-2.04-27.84-19.19-54.81-45.99-65.59l-224.57-90.29-112.06-42.85-4.75,6.59-52.74,79.19-75.64,115.21,31.41,14.83,167.82,85.94,97.44,51.49,36.51,19.55c5.58,2.99,9.04,7.6,12.34,12.73l8.43,13.1,14.45-14.2c20.12-15.76,49.64-9.08,62.36,12.77,2.83,4.86,3.92,9.82,4.71,15.78,10.55.24,20.75,2.86,28.78,9.69,9.19,7.83,14.81,17.99,14.41,30.26,13.89.38,26.03,6.66,34.25,17.14,7.64,9.75,10.07,22.07,5.75,33.87-1.62,4.41-4.07,9.97-7.46,13.22l-23.9,22.97,13.47,13.14c8.27,8.07,21.33,8.22,29.55.15l9.41-9.23-14.78-13.14c-4.16-3.7-6.38-8.14-4.53-14.02,1.24-3.93,5.29-7.33,10.42-8.27s8.78,1.96,12.26,5.17l22.83,21.06c5.67,5.23,13.2,6.31,20.28,3.1,7.44-3.38,12.98-15.86,6.05-22.29l-50.26-46.7c-5.49-5.1-8.16-10.72-4.14-18.03,2.36-4.28,12.08-8.91,17.39-4.03l57.87,53.18ZM638.21,642.31c-17.93-6.12-36.56-.66-48.89,12.35l-17.55,18.51-22.44,23.51-17.26,17.95c-4.05,4.21,4.02,10.15,11.81,14.71,12.13,7.09,27.2,5.23,37.13-5l21.13-21.78c6-6.18,12.47-10.48,21.85-10.47l28.86.03c7.29,0,13.64,2.59,19,7.21l43.53,37.49,71.65,62.24,15.16-23.54c3.21-4.98,8.31-8.15,13.42-11.79l248.41-129.19,87.44-44.9-75.73-115.17-57.51-86.35-112.09,43.4-227.06,90.65c-26.38,13.84-43.68,39.44-43.83,69.17l-.11,23.25,20.17,6.15,15.58,5.64c7.63,1.75,16.69,3.74,24.14,0l45.93-23.08,62.36-27.57,116.69-51.15,72.25-30.79,42.57-16.25c5.08-1.94,10.9,1.75,13.6,4.66,3.6,3.88,4.55,9.36,2.65,14.38-1.79,4.73-6.01,6.65-10.43,8.52l-71.53,30.4-86.99,38.01-107.05,46.82-27.06,11.19-39.58,18.21c-13.99,6.43-29.23,6.58-43.68,1.65l-26.56-9.07ZM472.26,839.15l25.8-25.71c4.83-4.82,3.83-13.33-.14-17.97-7.32-8.58-18.65-7.78-25.93-.04l-20.83,22.15c-5.8,6.17-3.77,16.62,2.64,21.68,5.25,4.15,13.3,5.03,18.46-.1ZM510.74,879.68l27.93-26.63c3.54-3.38,5.88-7.42,5.69-12.28-.17-4.36-2.34-8.83-6.48-11.55-5.75-3.78-14.26-4.77-19.6.56l-29.44,29.36c-5.33,5.32-2.39,14.77,1.91,18.9,5.11,4.91,14.23,7.12,19.99,1.63ZM528.07,913.81c5.26,8.47,17.49,10.4,24.89,3.46l27.3-25.61c5.83-5.47,7.59-13.33,2.04-19.95s-15.69-8.25-23.07-3.16l-18.35,17.71-9.81,9.2c-5.02,4.71-7.24,11.5-2.99,18.34Z"/>
    <path class="st0" d="M704.03,888.46l-57.87-53.18c-5.31-4.88-15.04-.25-17.39,4.03-4.02,7.31-1.35,12.93,4.14,18.03l50.26,46.7c6.92,6.43,1.38,18.91-6.05,22.29-7.08,3.22-14.61,2.14-20.28-3.1l-22.83-21.06c-3.48-3.21-7.32-6.08-12.26-5.17-5.13.94-9.18,4.34-10.42,8.27-1.85,5.88.38,10.33,4.53,14.02l14.78,13.14-9.41,9.23c-8.22,8.06-21.29,7.92-29.55-.15l-13.47-13.14,23.9-22.97c3.39-3.26,5.84-8.81,7.46-13.22,4.32-11.79,1.9-24.11-5.75-33.87-8.21-10.48-20.36-16.76-34.25-17.14.4-12.27-5.22-22.44-14.41-30.26-8.02-6.83-18.23-9.46-28.78-9.69-.79-5.95-1.89-10.92-4.71-15.78-12.71-21.85-42.23-28.53-62.36-12.77l-14.45,14.2-8.43-13.1c-3.3-5.13-6.76-9.75-12.34-12.73l-36.51-19.55-97.44-51.49-167.82-85.94-31.41-14.83,75.64-115.21,52.74-79.19,4.75-6.59,112.06,42.85,224.57,90.29c26.8,10.78,43.95,37.75,45.99,65.59l.2,28.73c-12.19,2.78-22.08,8.95-31.01,16.36l-83.59-39.09-189.71-78.2c-31.56-13.01-62.96-24.26-95.22-34.7-7.5-2.43-14.88,3.21-16.76,9.36-2.22,7.29,1.47,14.74,8.72,17.45l48.13,18.03,210.77,85.76,28.41,11.98,68.31,31.38-42.8,45.4c-10.02,10.63-7.26,27.48,1.6,37.88,20.84,24.87,60.04,29.5,81.3,8.15l27.94-28.06,31.6.2,120.58,105.25c6.43,5.61,10.42,12.46,8.29,21.17-1.99,8.15-9.76,14.24-18.29,13.86-6.75-.3-11.98-3.61-16.88-8.07l-69.04-62.75c-5.56-5.06-12.88-6.16-18.42-1.11-5.29,4.83-5.62,13.44-.07,18.51l70.55,64.45c6.85,6.25,2.9,18.2-4.07,22.5-7.59,4.68-16.36,3.29-23.15-2.95Z"/>
    <path class="st0" d="M638.21,642.31l26.56,9.07c14.45,4.93,29.69,4.78,43.68-1.65l39.58-18.21,27.06-11.19,107.05-46.82,86.99-38.01,71.53-30.4c4.42-1.88,8.64-3.79,10.43-8.52,1.9-5.01.95-10.5-2.65-14.38-2.7-2.91-8.52-6.6-13.6-4.66l-42.57,16.25-72.25,30.79-116.69,51.15-62.36,27.57-45.93,23.08c-7.45,3.74-16.51,1.76-24.14,0l-15.58-5.64-20.17-6.15.11-23.25c.14-29.73,17.45-55.33,43.83-69.17l227.06-90.65,112.09-43.4,57.51,86.35,75.73,115.17-87.44,44.9-248.41,129.19c-5.11,3.65-10.21,6.81-13.42,11.79l-15.16,23.54-71.65-62.24-43.53-37.49c-5.36-4.62-11.72-7.2-19-7.21l-28.86-.03c-9.39,0-15.85,4.28-21.85,10.47l-21.13,21.78c-9.93,10.23-25,12.09-37.13,5-7.79-4.55-15.86-10.5-11.81-14.71l17.26-17.95,22.44-23.51,17.55-18.51c12.33-13,30.96-18.47,48.89-12.35Z"/>
    <path class="st0" d="M528.07,913.81c-4.25-6.84-2.03-13.63,2.99-18.34l9.81-9.2,18.35-17.71c7.39-5.09,17.44-3.56,23.07,3.16s3.8,14.47-2.04,19.95l-27.3,25.61c-7.4,6.94-19.63,5-24.89-3.46Z"/>
    <path class="st0" d="M510.74,879.68c-5.76,5.49-14.88,3.28-19.99-1.63-4.3-4.13-7.25-13.58-1.91-18.9l29.44-29.36c5.34-5.33,13.86-4.34,19.6-.56,4.13,2.72,6.31,7.19,6.48,11.55.19,4.85-2.15,8.9-5.69,12.28l-27.93,26.63Z"/>
    <path class="st0" d="M472.26,839.15c-5.15,5.13-13.2,4.26-18.46.1-6.4-5.06-8.43-15.51-2.64-21.68l20.83-22.15c7.28-7.74,18.6-8.54,25.93.04,3.97,4.65,4.97,13.16.14,17.97l-25.8,25.71Z"/>
  </g>
  <line class="st1" x1="233.74" y1="457.49" x2="532.84" y2="577.04"/>
  <line class="st1" x1="233.03" y1="416.68" x2="532.13" y2="536.23"/>
  <line class="st1" x1="1002.06" y1="458.93" x2="701.36" y2="581.99"/>
  <ellipse class="st2" cx="623.04" cy="622.85" rx="611.04" ry="610.85"/>
  <line class="st1" x1="999.74" y1="423.69" x2="700.64" y2="543.25"/>
</svg>